<svg width="45" height="45" viewBox="0 0 45 45" fill="none" xmlns="http://www.w3.org/2000/svg">
<path d="M15.2552 26.25H15.2769M22.491 26.25H22.5127M29.7269 26.25H29.7485M15.2552 32.8125H15.2769M22.491 32.8125H22.5127M29.7269 32.8125H29.7485M18.75 41.25H26.25C35.625 41.25 39.375 37.5 39.375 28.125V16.875C39.375 7.5 35.625 3.75 26.25 3.75H18.75C9.375 3.75 5.625 7.5 5.625 16.875V28.125C5.625 37.5 9.375 41.25 18.75 41.25ZM30.9375 14.2125V16.0875C30.9375 17.625 29.6812 18.9 28.125 18.9H16.875C15.3375 18.9 14.0625 17.6437 14.0625 16.0875V14.2125C14.0625 12.675 15.3188 11.4 16.875 11.4H28.125C29.6812 11.4 30.9375 12.6562 30.9375 14.2125Z" stroke="white" stroke-width="3.5" stroke-linecap="round" stroke-linejoin="round"/>
</svg>
