<svg width="48" height="48" viewBox="0 0 48 48" fill="#59b2a5" xmlns="http://www.w3.org/2000/svg">
<path d="M22.9396 12H32.9396M22.9396 36H30.9396M22.9396 27.9L32.9396 28M22.9396 20H28.9396M16.8796 14H5.05957M42.9396 38V10C42.9396 6 40.9396 4 36.9396 4H28.9396C24.9396 4 22.9396 6 22.9396 10V38C22.9396 42 24.9396 44 28.9396 44H36.9396C40.9396 44 42.9396 42 42.9396 38ZM10.9796 4C7.71957 4 5.05957 6.66 5.05957 9.9V35.82C5.05957 36.72 5.43957 38.08 5.89957 38.86L7.53957 41.58C9.41957 44.72 12.5196 44.72 14.3996 41.58L16.0396 38.86C16.4996 38.08 16.8796 36.72 16.8796 35.82V9.9C16.8796 6.66 14.2196 4 10.9796 4Z" stroke="white" stroke-width="3.5" stroke-linecap="round"/>
</svg>
